<svg xmlns="http://www.w3.org/2000/svg" xmlns:xlink="http://www.w3.org/1999/xlink" width="500" zoomAndPan="magnify" viewBox="0 0 375 374.999991" height="500" preserveAspectRatio="xMidYMid meet" version="1.0"><defs><g/><clipPath id="ea04b83b5a"><path d="M 216 214 L 225 214 L 225 221.136719 L 216 221.136719 Z M 216 214 " clip-rule="nonzero"/></clipPath><clipPath id="b9d24cc4b0"><path d="M 198 176.136719 L 244 176.136719 L 244 220 L 198 220 Z M 198 176.136719 " clip-rule="nonzero"/></clipPath><clipPath id="b3eaddc84b"><path d="M 11.113281 119 L 86.863281 119 L 86.863281 169.714844 L 11.113281 169.714844 Z M 11.113281 119 " clip-rule="nonzero"/></clipPath><clipPath id="32599970fe"><path d="M 11.113281 118.714844 L 86.863281 118.714844 L 86.863281 169.714844 L 11.113281 169.714844 Z M 11.113281 118.714844 " clip-rule="nonzero"/></clipPath></defs><path fill="#004aad" d="M 236.023438 198.75 C 236.027344 195.226562 234.785156 191.820312 232.523438 189.125 C 230.261719 186.425781 227.117188 184.617188 223.648438 184.003906 C 220.179688 183.398438 216.609375 184.035156 213.5625 185.800781 C 210.519531 187.566406 208.191406 190.355469 207 193.660156 C 205.800781 196.972656 205.8125 200.601562 207.03125 203.910156 C 208.246094 207.207031 210.589844 209.980469 213.644531 211.726562 C 213.917969 209.277344 214.007812 206.8125 213.925781 204.351562 C 213.878906 202.664062 213.539062 201.691406 212.289062 200.796875 C 210.9375 199.832031 210.679688 199.066406 210.789062 197.820312 L 211.480469 189.925781 C 211.496094 189.6875 211.683594 189.496094 211.921875 189.472656 C 212.058594 189.460938 212.195312 189.515625 212.289062 189.609375 C 212.386719 189.707031 212.4375 189.839844 212.429688 189.980469 L 211.96875 197.347656 C 211.960938 197.480469 212.007812 197.609375 212.097656 197.707031 C 212.191406 197.800781 212.316406 197.855469 212.445312 197.855469 L 212.632812 197.855469 C 212.890625 197.855469 213.097656 197.652344 213.109375 197.394531 L 213.390625 189.933594 C 213.398438 189.675781 213.609375 189.46875 213.863281 189.46875 L 213.867188 189.46875 C 213.992188 189.46875 214.117188 189.523438 214.207031 189.613281 C 214.292969 189.703125 214.347656 189.828125 214.34375 189.957031 L 214.25 197.371094 C 214.25 197.5 214.296875 197.621094 214.386719 197.714844 C 214.480469 197.800781 214.597656 197.855469 214.726562 197.855469 L 214.917969 197.855469 C 215.039062 197.855469 215.164062 197.800781 215.253906 197.714844 C 215.34375 197.621094 215.394531 197.5 215.390625 197.371094 L 215.296875 189.957031 C 215.296875 189.828125 215.347656 189.703125 215.433594 189.613281 C 215.527344 189.523438 215.648438 189.46875 215.777344 189.46875 C 216.03125 189.46875 216.242188 189.675781 216.253906 189.933594 L 216.535156 197.394531 C 216.542969 197.652344 216.75 197.855469 217.007812 197.855469 L 217.195312 197.855469 C 217.324219 197.855469 217.453125 197.800781 217.542969 197.707031 C 217.632812 197.609375 217.679688 197.480469 217.671875 197.347656 L 217.210938 189.980469 C 217.199219 189.839844 217.253906 189.707031 217.347656 189.609375 C 217.445312 189.515625 217.582031 189.460938 217.71875 189.472656 C 217.957031 189.496094 218.144531 189.6875 218.160156 189.925781 L 218.851562 197.820312 C 218.964844 199.066406 218.707031 199.832031 217.355469 200.800781 C 216.101562 201.691406 215.761719 202.664062 215.714844 204.351562 C 215.617188 207.195312 215.753906 210.042969 216.136719 212.867188 C 218.960938 213.859375 222.019531 213.972656 224.910156 213.203125 C 225.265625 210.027344 225.675781 206.378906 225.71875 203.152344 C 225.730469 201.949219 225 201.070312 224.304688 200.308594 C 223.238281 199.136719 221.980469 197.707031 221.980469 195.292969 C 221.980469 192.074219 224.078125 189.46875 226.675781 189.46875 C 229.265625 189.46875 231.371094 192.074219 231.371094 195.292969 C 231.371094 197.707031 230.105469 199.136719 229.046875 200.308594 C 228.351562 201.070312 227.617188 201.949219 227.632812 203.152344 C 227.664062 205.929688 227.972656 209.015625 228.285156 211.847656 C 230.628906 210.554688 232.582031 208.65625 233.945312 206.351562 C 235.304688 204.050781 236.023438 201.421875 236.023438 198.75 " fill-opacity="1" fill-rule="nonzero"/><g clip-path="url(#ea04b83b5a)"><path fill="#004aad" d="M 221.066406 215.617188 C 219.496094 215.617188 217.941406 215.394531 216.429688 214.960938 C 216.746094 216.957031 216.933594 218.96875 216.984375 220.988281 C 219.480469 221.449219 222.039062 221.484375 224.550781 221.09375 C 224.5 220.898438 224.460938 220.707031 224.433594 220.511719 C 224.28125 219.480469 224.441406 217.5625 224.6875 215.21875 C 223.496094 215.484375 222.285156 215.617188 221.066406 215.617188 " fill-opacity="1" fill-rule="nonzero"/></g><g clip-path="url(#b9d24cc4b0)"><path fill="#004aad" d="M 221.066406 176.136719 C 215.808594 176.136719 210.714844 177.96875 206.660156 181.320312 C 202.609375 184.667969 199.847656 189.324219 198.859375 194.488281 C 197.867188 199.652344 198.707031 205 201.238281 209.613281 C 203.761719 214.222656 207.8125 217.8125 212.699219 219.753906 C 212.820312 217.464844 213.113281 215.6875 213.382812 213.757812 C 210.003906 212.027344 207.308594 209.207031 205.730469 205.753906 C 204.152344 202.300781 203.785156 198.414062 204.691406 194.726562 C 205.597656 191.039062 207.71875 187.765625 210.714844 185.433594 C 213.710938 183.101562 217.410156 181.851562 221.207031 181.882812 C 225.007812 181.914062 228.679688 183.222656 231.640625 185.605469 C 234.597656 187.980469 236.664062 191.289062 237.511719 194.992188 C 238.355469 198.691406 237.929688 202.570312 236.296875 206 C 234.664062 209.429688 231.921875 212.207031 228.511719 213.882812 C 228.792969 215.890625 228.941406 217.914062 228.964844 219.941406 C 233.9375 218.089844 238.089844 214.550781 240.71875 209.945312 C 243.339844 205.335938 244.261719 199.953125 243.324219 194.738281 C 242.378906 189.523438 239.636719 184.800781 235.570312 181.398438 C 231.503906 178 226.367188 176.136719 221.066406 176.136719 " fill-opacity="1" fill-rule="nonzero"/></g><g clip-path="url(#b3eaddc84b)"><path fill="#fffff7" d="M 29.984375 129.917969 C 30.023438 129.761719 30.0625 129.605469 30.105469 129.449219 C 30.300781 128.738281 30.5625 128.070312 30.863281 127.4375 C 32.136719 124.734375 34.226562 122.707031 36.757812 121.320312 C 39.183594 119.992188 42.019531 119.261719 44.929688 119.085938 C 49.21875 118.824219 53.671875 119.769531 57.226562 121.789062 C 59.820312 123.261719 61.933594 125.304688 63.183594 127.851562 C 63.3125 128.117188 63.445312 128.378906 63.578125 128.632812 C 69.441406 126.53125 74.394531 127.066406 78.15625 129.101562 C 83.949219 132.238281 86.941406 138.957031 86.101562 145.328125 C 85.1875 152.25 79.78125 158.796875 68.484375 159.769531 L 68.484375 168.714844 C 68.484375 168.9375 68.367188 169.140625 68.175781 169.253906 C 67.984375 169.363281 67.75 169.367188 67.554688 169.257812 C 55.234375 162.28125 42.429688 162.246094 29.136719 169.265625 C 28.945312 169.367188 28.714844 169.359375 28.527344 169.25 C 28.339844 169.136719 28.226562 168.933594 28.226562 168.714844 L 28.226562 161.441406 C 16.582031 160.964844 11.195312 152.953125 11.566406 145.148438 C 11.941406 137.261719 18.207031 129.515625 29.984375 129.917969 Z M 29.984375 129.917969 " fill-opacity="1" fill-rule="evenodd"/></g><g clip-path="url(#32599970fe)"><path fill="#004aad" d="M 29.921875 129.835938 C 29.953125 129.699219 29.988281 129.566406 30.027344 129.429688 C 30.222656 128.714844 30.484375 128.039062 30.785156 127.402344 C 32.070312 124.683594 34.171875 122.644531 36.71875 121.25 C 39.152344 119.917969 42.003906 119.183594 44.925781 119.003906 C 49.230469 118.742188 53.699219 119.691406 57.269531 121.71875 C 59.878906 123.199219 62.003906 125.253906 63.261719 127.816406 C 63.378906 128.0625 63.496094 128.296875 63.621094 128.53125 C 69.476562 126.449219 74.429688 126.992188 78.195312 129.03125 C 84.015625 132.183594 87.027344 138.9375 86.183594 145.34375 C 85.269531 152.277344 79.863281 158.847656 68.566406 159.847656 L 68.566406 168.71875 C 68.566406 168.96875 68.433594 169.199219 68.21875 169.328125 C 68 169.453125 67.734375 169.453125 67.515625 169.332031 C 55.21875 162.367188 42.441406 162.335938 29.175781 169.339844 C 28.960938 169.457031 28.695312 169.449219 28.484375 169.320312 C 28.273438 169.191406 28.144531 168.964844 28.144531 168.71875 L 28.144531 161.523438 C 16.496094 161.011719 11.113281 152.96875 11.484375 145.144531 C 11.859375 137.238281 18.128906 129.460938 29.921875 129.835938 Z M 42.464844 150.660156 C 38.175781 151.375 33.871094 152.855469 29.554688 155.085938 L 29.554688 167.5625 C 42.539062 161.039062 55.070312 161.070312 67.15625 167.527344 L 67.15625 156.007812 C 57.375 160.875 48.050781 157.652344 42.566406 150.765625 C 42.527344 150.734375 42.496094 150.699219 42.464844 150.660156 Z M 73.066406 135.292969 C 70.945312 135.84375 69.105469 135.628906 67.476562 134.804688 C 66.726562 134.421875 66.023438 133.910156 65.367188 133.273438 C 64.113281 132.058594 63.039062 130.394531 62.046875 128.417969 C 60.894531 126.101562 58.945312 124.265625 56.582031 122.933594 C 53.230469 121.042969 49.042969 120.167969 45.011719 120.414062 C 42.296875 120.578125 39.65625 121.253906 37.382812 122.476562 C 35.074219 123.71875 33.152344 125.527344 31.949219 127.964844 C 31.667969 128.539062 31.425781 129.148438 31.21875 129.789062 C 31.023438 130.398438 30.851562 131.035156 30.734375 131.710938 C 30.539062 132.746094 30.523438 134.257812 30.636719 135.738281 C 30.757812 137.316406 31.015625 138.851562 31.394531 139.722656 C 31.449219 139.84375 31.398438 139.988281 31.28125 140.042969 C 31.160156 140.101562 31.015625 140.050781 30.957031 139.933594 C 30.488281 139.054688 30.078125 137.472656 29.824219 135.832031 C 29.582031 134.269531 29.496094 132.660156 29.617188 131.542969 C 29.632812 131.441406 29.644531 131.339844 29.65625 131.238281 C 18.980469 130.996094 13.234375 138.003906 12.890625 145.210938 C 12.550781 152.355469 17.53125 159.613281 28.144531 160.113281 L 28.144531 158.449219 C 27.332031 158.625 26.574219 158.691406 25.871094 158.621094 C 25.28125 158.558594 24.730469 158.417969 24.222656 158.191406 C 23.589844 157.902344 23.023438 157.5 22.527344 156.972656 C 22.089844 156.507812 21.714844 155.96875 21.382812 155.335938 C 21.300781 155.207031 21.335938 155.03125 21.464844 154.945312 C 21.59375 154.859375 21.769531 154.894531 21.855469 155.019531 C 22.1875 155.40625 22.53125 155.730469 22.890625 156.019531 C 23.449219 156.46875 24.042969 156.765625 24.6875 156.964844 C 25.097656 157.089844 25.527344 157.160156 25.984375 157.1875 C 26.613281 157.226562 27.285156 157.183594 28.015625 157.015625 L 28.144531 156.984375 L 28.144531 155.394531 L 27.730469 155.304688 L 27.726562 155.304688 C 26.285156 154.925781 25.039062 154.351562 24.007812 153.554688 C 23.269531 152.988281 22.636719 152.3125 22.113281 151.535156 C 21.511719 150.636719 21.054688 149.605469 20.734375 148.445312 C 20.464844 147.453125 20.300781 146.371094 20.230469 145.191406 C 20.214844 145.039062 20.324219 144.898438 20.476562 144.878906 C 20.632812 144.859375 20.773438 144.96875 20.796875 145.121094 C 20.964844 145.996094 21.1875 146.796875 21.453125 147.550781 C 21.886719 148.792969 22.464844 149.855469 23.179688 150.761719 C 23.671875 151.390625 24.234375 151.9375 24.871094 152.40625 C 25.78125 153.078125 26.84375 153.59375 28.089844 153.925781 L 28.53125 154.03125 C 32.894531 151.734375 37.246094 150.183594 41.582031 149.386719 C 41.421875 149.125 41.257812 148.84375 41.101562 148.542969 C 40.75 147.875 40.417969 147.097656 40.152344 146.226562 C 39.988281 145.679688 39.839844 145.09375 39.746094 144.472656 C 39.691406 144.085938 39.640625 143.6875 39.640625 143.273438 C 39.640625 142.632812 39.734375 141.992188 39.859375 141.304688 C 39.867188 141.171875 39.980469 141.066406 40.113281 141.070312 C 40.246094 141.074219 40.351562 141.183594 40.351562 141.316406 C 40.4375 141.972656 40.59375 142.5625 40.722656 143.15625 C 40.808594 143.527344 40.878906 143.886719 40.964844 144.234375 C 41.101562 144.789062 41.253906 145.316406 41.429688 145.804688 C 41.707031 146.585938 42.03125 147.273438 42.355469 147.875 C 42.746094 148.597656 43.136719 149.195312 43.464844 149.648438 C 43.496094 149.675781 43.527344 149.707031 43.554688 149.742188 C 48.6875 156.308594 57.546875 159.359375 66.816406 154.601562 C 66.835938 154.589844 66.851562 154.582031 66.871094 154.570312 C 66.882812 154.566406 66.894531 154.558594 66.90625 154.554688 C 67.078125 154.464844 67.253906 154.371094 67.425781 154.277344 C 68.050781 153.914062 68.910156 153.316406 69.804688 152.390625 C 70.316406 151.855469 70.84375 151.21875 71.347656 150.453125 C 71.867188 149.664062 72.363281 148.746094 72.816406 147.667969 C 73.195312 146.757812 73.558594 145.761719 73.84375 144.617188 C 73.867188 144.476562 74.003906 144.378906 74.148438 144.402344 C 74.289062 144.429688 74.386719 144.5625 74.367188 144.707031 C 74.253906 145.929688 74.070312 147.023438 73.792969 148.003906 C 73.449219 149.222656 72.984375 150.257812 72.476562 151.144531 C 71.96875 152.035156 71.402344 152.769531 70.839844 153.371094 C 70.035156 154.242188 69.230469 154.839844 68.566406 155.25 L 68.566406 156.402344 C 69.359375 156.238281 70.042969 155.984375 70.644531 155.703125 C 71.109375 155.480469 71.53125 155.246094 71.898438 154.957031 C 72.566406 154.433594 73.085938 153.808594 73.4375 153.007812 C 73.488281 152.859375 73.644531 152.777344 73.792969 152.824219 C 73.941406 152.871094 74.027344 153.027344 73.984375 153.175781 C 73.867188 153.800781 73.667969 154.371094 73.378906 154.898438 C 73.074219 155.445312 72.671875 155.929688 72.167969 156.355469 C 71.800781 156.667969 71.371094 156.9375 70.890625 157.164062 C 70.28125 157.453125 69.574219 157.65625 68.789062 157.8125 L 68.566406 157.851562 L 68.566406 158.433594 C 78.910156 157.472656 83.945312 151.535156 84.789062 145.15625 C 85.558594 139.316406 82.835938 133.144531 77.523438 130.269531 C 74.105469 128.417969 69.621094 127.953125 64.320312 129.777344 C 64.929688 130.773438 65.578125 131.644531 66.273438 132.371094 C 66.824219 132.945312 67.398438 133.433594 68.023438 133.816406 C 69.414062 134.671875 71.015625 135.023438 72.949219 134.722656 C 73.105469 134.691406 73.257812 134.792969 73.292969 134.949219 C 73.324219 135.105469 73.222656 135.257812 73.066406 135.292969 Z M 73.066406 135.292969 " fill-opacity="1" fill-rule="evenodd"/></g><g fill="#00bf63" fill-opacity="1"><g transform="translate(19.317764, 213.821298)"><g><path d="M 29.53125 0.765625 C 24.851562 0.765625 20.6875 -0.304688 17.03125 -2.453125 C 13.375 -4.597656 10.507812 -7.734375 8.4375 -11.859375 C 6.375 -15.992188 5.34375 -20.945312 5.34375 -26.71875 C 5.34375 -32.488281 6.375 -37.441406 8.4375 -41.578125 C 10.507812 -45.710938 13.375 -48.847656 17.03125 -50.984375 C 20.6875 -53.128906 24.851562 -54.203125 29.53125 -54.203125 C 34.53125 -54.203125 38.6875 -53.257812 42 -51.375 C 45.3125 -49.488281 47.695312 -46.644531 49.15625 -42.84375 L 45.140625 -40.171875 L 44.234375 -40.171875 C 42.765625 -43.210938 40.859375 -45.375 38.515625 -46.65625 C 36.179688 -47.9375 33.1875 -48.578125 29.53125 -48.578125 C 26.164062 -48.578125 23.179688 -47.828125 20.578125 -46.328125 C 17.972656 -44.828125 15.898438 -42.453125 14.359375 -39.203125 C 12.828125 -35.953125 12.0625 -31.789062 12.0625 -26.71875 C 12.0625 -21.644531 12.828125 -17.488281 14.359375 -14.25 C 15.898438 -11.007812 17.972656 -8.640625 20.578125 -7.140625 C 23.179688 -5.640625 26.164062 -4.890625 29.53125 -4.890625 C 33.40625 -4.890625 36.570312 -5.757812 39.03125 -7.5 C 41.5 -9.25 43.328125 -12.070312 44.515625 -15.96875 L 45.4375 -15.96875 L 49.640625 -13.890625 C 48.367188 -9.160156 46.019531 -5.535156 42.59375 -3.015625 C 39.175781 -0.492188 34.820312 0.765625 29.53125 0.765625 Z M 29.53125 0.765625 "/></g></g></g><g fill="#00bf63" fill-opacity="1"><g transform="translate(71.728249, 213.821298)"><g><path d="M 7.015625 0 L 7.015625 -56.515625 L 12.96875 -56.515625 L 12.96875 -34.578125 L 13.75 -34.4375 C 16.625 -38.863281 20.773438 -41.078125 26.203125 -41.078125 C 31.054688 -41.078125 34.570312 -39.84375 36.75 -37.375 C 38.9375 -34.90625 40.03125 -31.097656 40.03125 -25.953125 L 40.03125 0 L 34.0625 0 L 34.0625 -25.8125 C 34.0625 -28.25 33.75 -30.203125 33.125 -31.671875 C 32.507812 -33.148438 31.550781 -34.222656 30.25 -34.890625 C 28.945312 -35.554688 27.234375 -35.890625 25.109375 -35.890625 C 21.453125 -35.890625 18.515625 -34.707031 16.296875 -32.34375 C 14.078125 -29.976562 12.96875 -26.09375 12.96875 -20.6875 L 12.96875 0 Z M 7.015625 0 "/></g></g></g><g fill="#00bf63" fill-opacity="1"><g transform="translate(118.144789, 213.821298)"><g><path d="M 38.421875 -18.78125 L 10.703125 -18.78125 C 10.878906 -13.882812 12.054688 -10.289062 14.234375 -8 C 16.421875 -5.707031 19.410156 -4.5625 23.203125 -4.5625 C 26.085938 -4.5625 28.40625 -5.070312 30.15625 -6.09375 C 31.90625 -7.125 33.28125 -8.734375 34.28125 -10.921875 L 35.046875 -10.921875 L 38.921875 -8.625 C 37.753906 -5.695312 35.882812 -3.398438 33.3125 -1.734375 C 30.75 -0.0664062 27.378906 0.765625 23.203125 0.765625 C 19.304688 0.765625 15.957031 0 13.15625 -1.53125 C 10.351562 -3.070312 8.195312 -5.398438 6.6875 -8.515625 C 5.175781 -11.640625 4.421875 -15.515625 4.421875 -20.140625 C 4.421875 -24.722656 5.21875 -28.582031 6.8125 -31.71875 C 8.414062 -34.863281 10.597656 -37.207031 13.359375 -38.75 C 16.128906 -40.300781 19.289062 -41.078125 22.84375 -41.078125 C 28.007812 -41.078125 32.039062 -39.617188 34.9375 -36.703125 C 37.84375 -33.796875 39.304688 -29.484375 39.328125 -23.765625 C 39.328125 -21.515625 39.28125 -20.003906 39.1875 -19.234375 Z M 33.453125 -23.765625 C 33.347656 -28.046875 32.394531 -31.160156 30.59375 -33.109375 C 28.789062 -35.066406 26.207031 -36.046875 22.84375 -36.046875 C 19.3125 -36.046875 16.539062 -35.0625 14.53125 -33.09375 C 12.519531 -31.132812 11.296875 -28.023438 10.859375 -23.765625 Z M 33.453125 -23.765625 "/></g></g></g><g fill="#00bf63" fill-opacity="1"><g transform="translate(161.125773, 213.821298)"><g><path d="M 39.484375 -53.4375 L 39.484375 -48.25 L 14.359375 -48.25 L 14.359375 -28.796875 L 36.953125 -28.796875 L 36.953125 -23.578125 L 14.359375 -23.578125 L 14.359375 0 L 8.078125 0 L 8.078125 -53.4375 Z M 39.484375 -53.4375 "/></g></g></g><g fill="#00bf63" fill-opacity="1"><g transform="translate(203.512128, 213.821298)"><g/></g></g><g fill="#00bf63" fill-opacity="1"><g transform="translate(221.859453, 213.821298)"><g/></g></g><g fill="#00bf63" fill-opacity="1"><g transform="translate(240.252296, 213.821298)"><g><path d="M 7.015625 0 L 7.015625 -40.3125 L 12.6875 -40.3125 L 12.6875 -34 L 13.453125 -33.8125 C 15.328125 -38.394531 18.859375 -40.6875 24.046875 -40.6875 C 26.804688 -40.6875 28.867188 -40.1875 30.234375 -39.1875 L 28.6875 -34.140625 L 27.96875 -34 C 26.457031 -34.75 24.796875 -35.125 22.984375 -35.125 C 19.773438 -35.125 17.300781 -33.914062 15.5625 -31.5 C 13.832031 -29.09375 12.96875 -25.1875 12.96875 -19.78125 L 12.96875 0 Z M 7.015625 0 "/></g></g></g><g fill="#00bf63" fill-opacity="1"><g transform="translate(271.391581, 213.821298)"><g><path d="M 20.765625 17.109375 C 14.398438 17.109375 9.753906 16.046875 6.828125 13.921875 C 3.910156 11.804688 2.453125 8.992188 2.453125 5.484375 C 2.453125 3.210938 3.132812 1.40625 4.5 0.0625 C 5.863281 -1.269531 7.847656 -2.226562 10.453125 -2.8125 L 10.453125 -3.578125 C 9.210938 -4.285156 8.28125 -5.113281 7.65625 -6.0625 C 7.03125 -7.019531 6.71875 -8.15625 6.71875 -9.46875 C 6.71875 -11.03125 7.210938 -12.296875 8.203125 -13.265625 C 9.191406 -14.242188 10.660156 -14.988281 12.609375 -15.5 L 12.609375 -16.265625 C 8.222656 -18.578125 6.03125 -22.34375 6.03125 -27.5625 C 6.03125 -30.195312 6.625 -32.535156 7.8125 -34.578125 C 9.007812 -36.628906 10.71875 -38.222656 12.9375 -39.359375 C 15.15625 -40.503906 17.738281 -41.078125 20.6875 -41.078125 C 24.070312 -41.078125 26.898438 -40.335938 29.171875 -38.859375 C 30.023438 -39.804688 30.664062 -40.820312 31.09375 -41.90625 C 31.519531 -42.988281 31.789062 -44.210938 31.90625 -45.578125 L 32.671875 -46.0625 L 37.578125 -44.890625 C 37.328125 -42.835938 36.707031 -41.101562 35.71875 -39.6875 C 34.738281 -38.28125 33.347656 -37.113281 31.546875 -36.1875 L 31.546875 -35.421875 C 32.835938 -34.398438 33.789062 -33.195312 34.40625 -31.8125 C 35.03125 -30.4375 35.34375 -28.835938 35.34375 -27.015625 C 35.34375 -24.472656 34.734375 -22.191406 33.515625 -20.171875 C 32.296875 -18.148438 30.578125 -16.5625 28.359375 -15.40625 C 26.140625 -14.25 23.582031 -13.671875 20.6875 -13.671875 C 20.34375 -13.671875 19.734375 -13.695312 18.859375 -13.75 C 17.890625 -13.789062 17.171875 -13.8125 16.703125 -13.8125 C 15.429688 -13.8125 14.414062 -13.484375 13.65625 -12.828125 C 12.90625 -12.171875 12.53125 -11.332031 12.53125 -10.3125 C 12.53125 -9.039062 12.9375 -8.101562 13.75 -7.5 C 14.570312 -6.90625 15.921875 -6.570312 17.796875 -6.5 L 27.34375 -6.171875 C 31.457031 -6.023438 34.507812 -5.066406 36.5 -3.296875 C 38.488281 -1.535156 39.484375 0.960938 39.484375 4.203125 C 39.484375 6.617188 38.835938 8.796875 37.546875 10.734375 C 36.253906 12.671875 34.203125 14.21875 31.390625 15.375 C 28.585938 16.53125 25.046875 17.109375 20.765625 17.109375 Z M 20.6875 -18.78125 C 23.539062 -18.78125 25.742188 -19.523438 27.296875 -21.015625 C 28.859375 -22.503906 29.640625 -24.585938 29.640625 -27.265625 C 29.640625 -30.046875 28.863281 -32.191406 27.3125 -33.703125 C 25.769531 -35.210938 23.5625 -35.96875 20.6875 -35.96875 C 17.8125 -35.96875 15.617188 -35.21875 14.109375 -33.71875 C 12.597656 -32.21875 11.84375 -30.066406 11.84375 -27.265625 C 11.84375 -24.554688 12.597656 -22.460938 14.109375 -20.984375 C 15.617188 -19.515625 17.8125 -18.78125 20.6875 -18.78125 Z M 20.765625 11.984375 C 23.734375 11.984375 26.160156 11.65625 28.046875 11 C 29.941406 10.34375 31.300781 9.472656 32.125 8.390625 C 32.957031 7.304688 33.375 6.09375 33.375 4.75 C 33.375 3.550781 33.144531 2.585938 32.6875 1.859375 C 32.238281 1.128906 31.515625 0.582031 30.515625 0.21875 C 29.515625 -0.144531 28.148438 -0.375 26.421875 -0.46875 L 17.40625 -0.90625 L 16.125 -0.90625 C 11.070312 -0.832031 8.546875 1.125 8.546875 4.96875 C 8.546875 9.644531 12.617188 11.984375 20.765625 11.984375 Z M 20.765625 11.984375 "/></g></g></g><g fill="#00bf63" fill-opacity="1"><g transform="translate(312.691336, 213.821298)"><g><path d="M 38.421875 -18.78125 L 10.703125 -18.78125 C 10.878906 -13.882812 12.054688 -10.289062 14.234375 -8 C 16.421875 -5.707031 19.410156 -4.5625 23.203125 -4.5625 C 26.085938 -4.5625 28.40625 -5.070312 30.15625 -6.09375 C 31.90625 -7.125 33.28125 -8.734375 34.28125 -10.921875 L 35.046875 -10.921875 L 38.921875 -8.625 C 37.753906 -5.695312 35.882812 -3.398438 33.3125 -1.734375 C 30.75 -0.0664062 27.378906 0.765625 23.203125 0.765625 C 19.304688 0.765625 15.957031 0 13.15625 -1.53125 C 10.351562 -3.070312 8.195312 -5.398438 6.6875 -8.515625 C 5.175781 -11.640625 4.421875 -15.515625 4.421875 -20.140625 C 4.421875 -24.722656 5.21875 -28.582031 6.8125 -31.71875 C 8.414062 -34.863281 10.597656 -37.207031 13.359375 -38.75 C 16.128906 -40.300781 19.289062 -41.078125 22.84375 -41.078125 C 28.007812 -41.078125 32.039062 -39.617188 34.9375 -36.703125 C 37.84375 -33.796875 39.304688 -29.484375 39.328125 -23.765625 C 39.328125 -21.515625 39.28125 -20.003906 39.1875 -19.234375 Z M 33.453125 -23.765625 C 33.347656 -28.046875 32.394531 -31.160156 30.59375 -33.109375 C 28.789062 -35.066406 26.207031 -36.046875 22.84375 -36.046875 C 19.3125 -36.046875 16.539062 -35.0625 14.53125 -33.09375 C 12.519531 -31.132812 11.296875 -28.023438 10.859375 -23.765625 Z M 33.453125 -23.765625 "/></g></g></g></svg>